M48
; DRILL file {KiCad (6.0.10-0)} date 
; FORMAT={-:-/ absolute / metric / decimal}
; #@! TF.CreationDate,2023-02-19T16:13:58+09:00
; #@! TF.GenerationSoftware,Kicad,Pcbnew,(6.0.10-0)
; #@! TF.FileFunction,MixedPlating,1,2
FMAT,2
METRIC
; #@! TA.AperFunction,Plated,PTH,ViaDrill
T1C0.300
; #@! TA.AperFunction,Plated,PTH,ComponentDrill
T2C0.787
; #@! TA.AperFunction,Plated,PTH,ComponentDrill
T3C0.800
; #@! TA.AperFunction,Plated,PTH,ComponentDrill
T4C1.000
%
G90
G05
T1
X1.27Y55.515
X1.27Y25.035
X1.27Y1.54
X9.525Y39.005
X9.525Y31.385
X9.525Y16.145
X9.525Y11.065
X18.415Y39.005
X18.415Y31.385
X19.05Y52.975
X19.05Y51.705
X21.59Y52.975
X21.59Y51.705
X26.035Y19.955
X26.349Y42.326
X26.67Y1.54
X27.305Y7.255
X27.94Y45.355
X27.94Y40.275
X27.94Y28.845
X29.845Y26.94
X33.02Y45.355
X33.02Y40.275
X33.655Y55.515
X33.655Y13.605
X33.655Y11.065
X33.66Y38.116
X34.169Y44.46
X34.417Y38.873
X34.417Y38.116
X34.925Y32.655
X34.925Y30.115
X35.179Y38.116
X35.179Y14.382
X35.279Y44.051
X36.036Y44.051
X36.793Y44.051
X43.18Y45.355
X43.18Y42.815
X49.53Y21.225
X50.165Y32.02
X57.785Y32.02
X57.785Y21.225
X71.755Y55.515
X71.755Y7.255
T2
X36.83Y41.545
X36.83Y39.005
X36.83Y36.465
X36.83Y33.925
X36.83Y31.385
X36.83Y28.845
X36.83Y26.305
X36.83Y23.765
X36.83Y21.225
X36.83Y18.685
X36.83Y16.145
X36.83Y13.605
X36.83Y11.065
X39.37Y41.545
X39.37Y39.005
X39.37Y36.465
X39.37Y33.925
X39.37Y31.385
X39.37Y28.845
X39.37Y26.305
X39.37Y23.765
X39.37Y21.225
X39.37Y18.685
X39.37Y16.145
X39.37Y13.605
X39.37Y11.065
X41.91Y41.545
X41.91Y39.005
X41.91Y36.465
X41.91Y33.925
X41.91Y31.385
X41.91Y28.845
X41.91Y26.305
X41.91Y23.765
X41.91Y21.225
X41.91Y18.685
X41.91Y16.145
X41.91Y13.605
X41.91Y11.065
X44.45Y41.545
X44.45Y39.005
X44.45Y36.465
X44.45Y33.925
X44.45Y28.845
X44.45Y18.685
X44.45Y16.145
X44.45Y13.605
X44.45Y11.065
X46.99Y41.545
X46.99Y39.005
X46.99Y36.465
X46.99Y33.925
X46.99Y18.685
X46.99Y16.145
X46.99Y13.605
X46.99Y11.065
X49.53Y41.545
X49.53Y39.005
X49.53Y36.465
X49.53Y16.145
X49.53Y13.605
X49.53Y11.065
X52.07Y41.545
X52.07Y39.005
X52.07Y36.465
X52.07Y16.145
X52.07Y13.605
X52.07Y11.065
X54.61Y41.545
X54.61Y39.005
X54.61Y36.465
X54.61Y16.145
X54.61Y13.605
X54.61Y11.065
X57.15Y41.545
X57.15Y39.005
X57.15Y36.465
X57.15Y16.145
X57.15Y13.605
X57.15Y11.065
X59.69Y41.545
X59.69Y39.005
X59.69Y36.465
X59.69Y33.925
X59.69Y28.845
X59.69Y18.685
X59.69Y16.145
X59.69Y13.605
X59.69Y11.065
X62.23Y41.545
X62.23Y39.005
X62.23Y36.465
X62.23Y33.925
X62.23Y31.385
X62.23Y28.845
X62.23Y26.305
X62.23Y23.765
X62.23Y21.225
X62.23Y18.685
X62.23Y16.145
X62.23Y13.605
X62.23Y11.065
X64.77Y41.545
X64.77Y39.005
X64.77Y36.465
X64.77Y33.925
X64.77Y31.385
X64.77Y28.845
X64.77Y26.305
X64.77Y23.765
X64.77Y21.225
X64.77Y18.685
X64.77Y16.145
X64.77Y13.605
X64.77Y11.065
X67.31Y41.545
X67.31Y39.005
X67.31Y36.465
X67.31Y33.925
X67.31Y31.385
X67.31Y28.845
X67.31Y26.305
X67.31Y23.765
X67.31Y21.225
X67.31Y18.685
X67.31Y16.145
X67.31Y13.605
X67.31Y11.065
T3
X6.345Y44.085
X6.345Y41.545
X6.345Y39.005
X6.345Y36.465
X6.345Y33.925
X6.345Y31.385
X6.345Y28.845
X6.345Y26.305
X6.345Y23.765
X6.345Y21.225
X6.345Y18.685
X6.345Y16.145
X6.345Y13.605
X6.345Y11.065
X6.345Y8.525
X6.345Y5.985
X6.35Y50.435
X6.35Y47.26
X16.51Y50.435
X16.51Y47.26
X19.07Y47.26
X21.57Y47.26
X21.585Y44.085
X21.585Y41.545
X21.585Y39.005
X21.585Y36.465
X21.585Y33.925
X21.585Y31.385
X21.585Y28.845
X21.585Y26.305
X21.585Y23.765
X21.585Y21.225
X21.585Y18.685
X21.585Y16.145
X21.585Y13.605
X21.585Y11.065
X21.585Y8.525
X21.585Y5.985
X29.162Y33.925
X31.662Y33.925
X33.655Y28.825
X33.655Y26.325
X70.485Y28.845
X70.485Y26.345
T4
X3.81Y51.705
X3.81Y49.165
X3.81Y46.625
X3.81Y44.085
X3.81Y41.545
X3.81Y39.005
X3.81Y36.465
X3.81Y33.925
X3.81Y31.385
X3.81Y28.845
X3.81Y26.305
X3.81Y23.765
X3.81Y21.225
X3.81Y18.685
X3.81Y16.145
X3.81Y13.605
X3.81Y11.065
X3.81Y8.525
X3.81Y5.985
X3.81Y3.445
X24.13Y51.705
X24.13Y49.165
X24.13Y46.625
X24.13Y44.085
X24.13Y41.545
X24.13Y39.005
X24.13Y36.465
X24.13Y33.925
X24.13Y31.385
X24.13Y28.845
X24.13Y26.305
X24.13Y23.765
X24.13Y21.225
X24.13Y18.685
X24.13Y16.145
X24.13Y13.605
X24.13Y11.065
X24.13Y8.525
X24.13Y5.985
X24.13Y3.445
T0
M30
