G04 #@! TF.GenerationSoftware,KiCad,Pcbnew,(6.0.10-0)*
G04 #@! TF.CreationDate,2023-02-19T16:13:56+09:00*
G04 #@! TF.ProjectId,MEZ68030RAM,4d455a36-3830-4333-9052-414d2e6b6963,A*
G04 #@! TF.SameCoordinates,PX5f5e100PY8e18f40*
G04 #@! TF.FileFunction,Soldermask,Top*
G04 #@! TF.FilePolarity,Negative*
%FSLAX46Y46*%
G04 Gerber Fmt 4.6, Leading zero omitted, Abs format (unit mm)*
G04 Created by KiCad (PCBNEW (6.0.10-0)) date 2023-02-19 16:13:56*
%MOMM*%
%LPD*%
G01*
G04 APERTURE LIST*
%ADD10C,1.600000*%
%ADD11O,1.600000X1.600000*%
%ADD12R,1.397000X1.397000*%
%ADD13C,1.397000*%
%ADD14R,1.600000X1.600000*%
%ADD15R,1.700000X1.700000*%
%ADD16O,1.700000X1.700000*%
%ADD17C,0.605000*%
G04 APERTURE END LIST*
D10*
X16510000Y50435000D03*
D11*
X6350000Y50435000D03*
D12*
X36830000Y41545000D03*
D13*
X39370000Y41545000D03*
X41910000Y41545000D03*
X44450000Y41545000D03*
X46990000Y41545000D03*
X49530000Y41545000D03*
X52070000Y41545000D03*
X54610000Y41545000D03*
X57150000Y41545000D03*
X59690000Y41545000D03*
X62230000Y41545000D03*
X64770000Y41545000D03*
X67310000Y41545000D03*
X36830000Y39005000D03*
X39370000Y39005000D03*
X41910000Y39005000D03*
X44450000Y39005000D03*
X46990000Y39005000D03*
X49530000Y39005000D03*
X52070000Y39005000D03*
X54610000Y39005000D03*
X57150000Y39005000D03*
X59690000Y39005000D03*
X62230000Y39005000D03*
X64770000Y39005000D03*
X67310000Y39005000D03*
X36830000Y36465000D03*
X39370000Y36465000D03*
X41910000Y36465000D03*
X44450000Y36465000D03*
X46990000Y36465000D03*
X49530000Y36465000D03*
X52070000Y36465000D03*
X54610000Y36465000D03*
X57150000Y36465000D03*
X59690000Y36465000D03*
X62230000Y36465000D03*
X64770000Y36465000D03*
X67310000Y36465000D03*
X36830000Y33925000D03*
X39370000Y33925000D03*
X41910000Y33925000D03*
X44450000Y33925000D03*
X46990000Y33925000D03*
X59690000Y33925000D03*
X62230000Y33925000D03*
X64770000Y33925000D03*
X67310000Y33925000D03*
X36830000Y31385000D03*
X39370000Y31385000D03*
X41910000Y31385000D03*
X62230000Y31385000D03*
X64770000Y31385000D03*
X67310000Y31385000D03*
X36830000Y28845000D03*
X39370000Y28845000D03*
X41910000Y28845000D03*
X44450000Y28845000D03*
X59690000Y28845000D03*
X62230000Y28845000D03*
X64770000Y28845000D03*
X67310000Y28845000D03*
X36830000Y26305000D03*
X39370000Y26305000D03*
X41910000Y26305000D03*
X62230000Y26305000D03*
X64770000Y26305000D03*
X67310000Y26305000D03*
X36830000Y23765000D03*
X39370000Y23765000D03*
X41910000Y23765000D03*
X62230000Y23765000D03*
X64770000Y23765000D03*
X67310000Y23765000D03*
X36830000Y21225000D03*
X39370000Y21225000D03*
X41910000Y21225000D03*
X62230000Y21225000D03*
X64770000Y21225000D03*
X67310000Y21225000D03*
X36830000Y18685000D03*
X39370000Y18685000D03*
X41910000Y18685000D03*
X44450000Y18685000D03*
X46990000Y18685000D03*
X59690000Y18685000D03*
X62230000Y18685000D03*
X64770000Y18685000D03*
X67310000Y18685000D03*
X36830000Y16145000D03*
X39370000Y16145000D03*
X41910000Y16145000D03*
X44450000Y16145000D03*
X46990000Y16145000D03*
X49530000Y16145000D03*
X52070000Y16145000D03*
X54610000Y16145000D03*
X57150000Y16145000D03*
X59690000Y16145000D03*
X62230000Y16145000D03*
X64770000Y16145000D03*
X67310000Y16145000D03*
X36830000Y13605000D03*
X39370000Y13605000D03*
X41910000Y13605000D03*
X44450000Y13605000D03*
X46990000Y13605000D03*
X49530000Y13605000D03*
X52070000Y13605000D03*
X54610000Y13605000D03*
X57150000Y13605000D03*
X59690000Y13605000D03*
X62230000Y13605000D03*
X64770000Y13605000D03*
X67310000Y13605000D03*
X36830000Y11065000D03*
X39370000Y11065000D03*
X41910000Y11065000D03*
X44450000Y11065000D03*
X46990000Y11065000D03*
X49530000Y11065000D03*
X52070000Y11065000D03*
X54610000Y11065000D03*
X57150000Y11065000D03*
X59690000Y11065000D03*
X62230000Y11065000D03*
X64770000Y11065000D03*
X67310000Y11065000D03*
D14*
X6345000Y44085000D03*
D11*
X6345000Y41545000D03*
X6345000Y39005000D03*
X6345000Y36465000D03*
X6345000Y33925000D03*
X6345000Y31385000D03*
X6345000Y28845000D03*
X6345000Y26305000D03*
X6345000Y23765000D03*
X6345000Y21225000D03*
X6345000Y18685000D03*
X6345000Y16145000D03*
X6345000Y13605000D03*
X6345000Y11065000D03*
X6345000Y8525000D03*
X6345000Y5985000D03*
X21585000Y5985000D03*
X21585000Y8525000D03*
X21585000Y11065000D03*
X21585000Y13605000D03*
X21585000Y16145000D03*
X21585000Y18685000D03*
X21585000Y21225000D03*
X21585000Y23765000D03*
X21585000Y26305000D03*
X21585000Y28845000D03*
X21585000Y31385000D03*
X21585000Y33925000D03*
X21585000Y36465000D03*
X21585000Y39005000D03*
X21585000Y41545000D03*
X21585000Y44085000D03*
D14*
X31662400Y33925000D03*
D10*
X29162400Y33925000D03*
X21570000Y47260000D03*
X19070000Y47260000D03*
X6350000Y47260000D03*
D11*
X16510000Y47260000D03*
D10*
X70485000Y28845000D03*
X70485000Y26345000D03*
X33655000Y28825000D03*
X33655000Y26325000D03*
D15*
X24130000Y51705000D03*
D16*
X24130000Y49165000D03*
X24130000Y46625000D03*
X24130000Y44085000D03*
X24130000Y41545000D03*
X24130000Y39005000D03*
X24130000Y36465000D03*
X24130000Y33925000D03*
X24130000Y31385000D03*
X24130000Y28845000D03*
X24130000Y26305000D03*
X24130000Y23765000D03*
X24130000Y21225000D03*
X24130000Y18685000D03*
X24130000Y16145000D03*
X24130000Y13605000D03*
X24130000Y11065000D03*
X24130000Y8525000D03*
X24130000Y5985000D03*
X24130000Y3445000D03*
D15*
X3810000Y51705000D03*
D16*
X3810000Y49165000D03*
X3810000Y46625000D03*
X3810000Y44085000D03*
X3810000Y41545000D03*
X3810000Y39005000D03*
X3810000Y36465000D03*
X3810000Y33925000D03*
X3810000Y31385000D03*
X3810000Y28845000D03*
X3810000Y26305000D03*
X3810000Y23765000D03*
X3810000Y21225000D03*
X3810000Y18685000D03*
X3810000Y16145000D03*
X3810000Y13605000D03*
X3810000Y11065000D03*
X3810000Y8525000D03*
X3810000Y5985000D03*
X3810000Y3445000D03*
D17*
X27940000Y40275000D03*
X43180000Y42815000D03*
X18415000Y31385000D03*
X33655000Y55515000D03*
X29845000Y26940000D03*
X1270000Y55515000D03*
X9525000Y16145000D03*
X21590000Y52975000D03*
X19050000Y51705000D03*
X27940000Y28845000D03*
X33020000Y45355000D03*
X27940000Y45355000D03*
X26035000Y19955000D03*
X71755000Y7255000D03*
X33655000Y11065000D03*
X43180000Y45355000D03*
X21590000Y51705000D03*
X71755000Y55515000D03*
X9525000Y31385000D03*
X27305000Y7255000D03*
X1270000Y25035000D03*
X33020000Y40275000D03*
X9525000Y11065000D03*
X26670000Y1540000D03*
X49530000Y21225000D03*
X34925000Y30115000D03*
X34925000Y32655000D03*
X18415000Y39005000D03*
X1270000Y1540000D03*
X57785000Y21225000D03*
X33655000Y13605000D03*
X50165000Y32020000D03*
X19050000Y52975000D03*
X57785000Y32020000D03*
X9525000Y39005000D03*
X35179000Y38116000D03*
X36792731Y44051100D03*
X35179000Y14382500D03*
X34168809Y44460191D03*
X35278925Y44051100D03*
X36035828Y44051100D03*
X34417000Y38872903D03*
X33660097Y38116000D03*
X34417000Y38116000D03*
X26348800Y42326257D03*
M02*
