G04 #@! TF.GenerationSoftware,KiCad,Pcbnew,(6.0.10-0)*
G04 #@! TF.CreationDate,2023-02-19T16:13:56+09:00*
G04 #@! TF.ProjectId,MEZ68030RAM,4d455a36-3830-4333-9052-414d2e6b6963,A*
G04 #@! TF.SameCoordinates,PX5f5e100PY8e18f40*
G04 #@! TF.FileFunction,Legend,Bot*
G04 #@! TF.FilePolarity,Positive*
%FSLAX46Y46*%
G04 Gerber Fmt 4.6, Leading zero omitted, Abs format (unit mm)*
G04 Created by KiCad (PCBNEW (6.0.10-0)) date 2023-02-19 16:13:56*
%MOMM*%
%LPD*%
G01*
G04 APERTURE LIST*
%ADD10C,0.200000*%
%ADD11C,0.150000*%
%ADD12C,0.120000*%
G04 APERTURE END LIST*
D10*
X57212857Y52862620D02*
X57212857Y53862620D01*
X56879523Y53148334D01*
X56546190Y53862620D01*
X56546190Y52862620D01*
X56070000Y53386429D02*
X55736666Y53386429D01*
X55593809Y52862620D02*
X56070000Y52862620D01*
X56070000Y53862620D01*
X55593809Y53862620D01*
X55260476Y53862620D02*
X54593809Y53862620D01*
X55260476Y52862620D01*
X54593809Y52862620D01*
X53784285Y53862620D02*
X53974761Y53862620D01*
X54070000Y53815000D01*
X54117619Y53767381D01*
X54212857Y53624524D01*
X54260476Y53434048D01*
X54260476Y53053096D01*
X54212857Y52957858D01*
X54165238Y52910239D01*
X54070000Y52862620D01*
X53879523Y52862620D01*
X53784285Y52910239D01*
X53736666Y52957858D01*
X53689047Y53053096D01*
X53689047Y53291191D01*
X53736666Y53386429D01*
X53784285Y53434048D01*
X53879523Y53481667D01*
X54070000Y53481667D01*
X54165238Y53434048D01*
X54212857Y53386429D01*
X54260476Y53291191D01*
X53117619Y53434048D02*
X53212857Y53481667D01*
X53260476Y53529286D01*
X53308095Y53624524D01*
X53308095Y53672143D01*
X53260476Y53767381D01*
X53212857Y53815000D01*
X53117619Y53862620D01*
X52927142Y53862620D01*
X52831904Y53815000D01*
X52784285Y53767381D01*
X52736666Y53672143D01*
X52736666Y53624524D01*
X52784285Y53529286D01*
X52831904Y53481667D01*
X52927142Y53434048D01*
X53117619Y53434048D01*
X53212857Y53386429D01*
X53260476Y53338810D01*
X53308095Y53243572D01*
X53308095Y53053096D01*
X53260476Y52957858D01*
X53212857Y52910239D01*
X53117619Y52862620D01*
X52927142Y52862620D01*
X52831904Y52910239D01*
X52784285Y52957858D01*
X52736666Y53053096D01*
X52736666Y53243572D01*
X52784285Y53338810D01*
X52831904Y53386429D01*
X52927142Y53434048D01*
X52117619Y53862620D02*
X52022380Y53862620D01*
X51927142Y53815000D01*
X51879523Y53767381D01*
X51831904Y53672143D01*
X51784285Y53481667D01*
X51784285Y53243572D01*
X51831904Y53053096D01*
X51879523Y52957858D01*
X51927142Y52910239D01*
X52022380Y52862620D01*
X52117619Y52862620D01*
X52212857Y52910239D01*
X52260476Y52957858D01*
X52308095Y53053096D01*
X52355714Y53243572D01*
X52355714Y53481667D01*
X52308095Y53672143D01*
X52260476Y53767381D01*
X52212857Y53815000D01*
X52117619Y53862620D01*
X51450952Y53862620D02*
X50831904Y53862620D01*
X51165238Y53481667D01*
X51022380Y53481667D01*
X50927142Y53434048D01*
X50879523Y53386429D01*
X50831904Y53291191D01*
X50831904Y53053096D01*
X50879523Y52957858D01*
X50927142Y52910239D01*
X51022380Y52862620D01*
X51308095Y52862620D01*
X51403333Y52910239D01*
X51450952Y52957858D01*
X50212857Y53862620D02*
X50117619Y53862620D01*
X50022380Y53815000D01*
X49974761Y53767381D01*
X49927142Y53672143D01*
X49879523Y53481667D01*
X49879523Y53243572D01*
X49927142Y53053096D01*
X49974761Y52957858D01*
X50022380Y52910239D01*
X50117619Y52862620D01*
X50212857Y52862620D01*
X50308095Y52910239D01*
X50355714Y52957858D01*
X50403333Y53053096D01*
X50450952Y53243572D01*
X50450952Y53481667D01*
X50403333Y53672143D01*
X50355714Y53767381D01*
X50308095Y53815000D01*
X50212857Y53862620D01*
X48879523Y52862620D02*
X49212857Y53338810D01*
X49450952Y52862620D02*
X49450952Y53862620D01*
X49070000Y53862620D01*
X48974761Y53815000D01*
X48927142Y53767381D01*
X48879523Y53672143D01*
X48879523Y53529286D01*
X48927142Y53434048D01*
X48974761Y53386429D01*
X49070000Y53338810D01*
X49450952Y53338810D01*
X48498571Y53148334D02*
X48022380Y53148334D01*
X48593809Y52862620D02*
X48260476Y53862620D01*
X47927142Y52862620D01*
X47593809Y52862620D02*
X47593809Y53862620D01*
X47260476Y53148334D01*
X46927142Y53862620D01*
X46927142Y52862620D01*
X66784285Y51252620D02*
X66784285Y52252620D01*
X66450952Y51538334D01*
X66117619Y52252620D01*
X66117619Y51252620D01*
X65070000Y51347858D02*
X65117619Y51300239D01*
X65260476Y51252620D01*
X65355714Y51252620D01*
X65498571Y51300239D01*
X65593809Y51395477D01*
X65641428Y51490715D01*
X65689047Y51681191D01*
X65689047Y51824048D01*
X65641428Y52014524D01*
X65593809Y52109762D01*
X65498571Y52205000D01*
X65355714Y52252620D01*
X65260476Y52252620D01*
X65117619Y52205000D01*
X65070000Y52157381D01*
X64212857Y52252620D02*
X64403333Y52252620D01*
X64498571Y52205000D01*
X64546190Y52157381D01*
X64641428Y52014524D01*
X64689047Y51824048D01*
X64689047Y51443096D01*
X64641428Y51347858D01*
X64593809Y51300239D01*
X64498571Y51252620D01*
X64308095Y51252620D01*
X64212857Y51300239D01*
X64165238Y51347858D01*
X64117619Y51443096D01*
X64117619Y51681191D01*
X64165238Y51776429D01*
X64212857Y51824048D01*
X64308095Y51871667D01*
X64498571Y51871667D01*
X64593809Y51824048D01*
X64641428Y51776429D01*
X64689047Y51681191D01*
X63546190Y51824048D02*
X63641428Y51871667D01*
X63689047Y51919286D01*
X63736666Y52014524D01*
X63736666Y52062143D01*
X63689047Y52157381D01*
X63641428Y52205000D01*
X63546190Y52252620D01*
X63355714Y52252620D01*
X63260476Y52205000D01*
X63212857Y52157381D01*
X63165238Y52062143D01*
X63165238Y52014524D01*
X63212857Y51919286D01*
X63260476Y51871667D01*
X63355714Y51824048D01*
X63546190Y51824048D01*
X63641428Y51776429D01*
X63689047Y51728810D01*
X63736666Y51633572D01*
X63736666Y51443096D01*
X63689047Y51347858D01*
X63641428Y51300239D01*
X63546190Y51252620D01*
X63355714Y51252620D01*
X63260476Y51300239D01*
X63212857Y51347858D01*
X63165238Y51443096D01*
X63165238Y51633572D01*
X63212857Y51728810D01*
X63260476Y51776429D01*
X63355714Y51824048D01*
X62546190Y52252620D02*
X62450952Y52252620D01*
X62355714Y52205000D01*
X62308095Y52157381D01*
X62260476Y52062143D01*
X62212857Y51871667D01*
X62212857Y51633572D01*
X62260476Y51443096D01*
X62308095Y51347858D01*
X62355714Y51300239D01*
X62450952Y51252620D01*
X62546190Y51252620D01*
X62641428Y51300239D01*
X62689047Y51347858D01*
X62736666Y51443096D01*
X62784285Y51633572D01*
X62784285Y51871667D01*
X62736666Y52062143D01*
X62689047Y52157381D01*
X62641428Y52205000D01*
X62546190Y52252620D01*
X61879523Y52252620D02*
X61260476Y52252620D01*
X61593809Y51871667D01*
X61450952Y51871667D01*
X61355714Y51824048D01*
X61308095Y51776429D01*
X61260476Y51681191D01*
X61260476Y51443096D01*
X61308095Y51347858D01*
X61355714Y51300239D01*
X61450952Y51252620D01*
X61736666Y51252620D01*
X61831904Y51300239D01*
X61879523Y51347858D01*
X60641428Y52252620D02*
X60546190Y52252620D01*
X60450952Y52205000D01*
X60403333Y52157381D01*
X60355714Y52062143D01*
X60308095Y51871667D01*
X60308095Y51633572D01*
X60355714Y51443096D01*
X60403333Y51347858D01*
X60450952Y51300239D01*
X60546190Y51252620D01*
X60641428Y51252620D01*
X60736666Y51300239D01*
X60784285Y51347858D01*
X60831904Y51443096D01*
X60879523Y51633572D01*
X60879523Y51871667D01*
X60831904Y52062143D01*
X60784285Y52157381D01*
X60736666Y52205000D01*
X60641428Y52252620D01*
X59117619Y51252620D02*
X59117619Y52252620D01*
X58784285Y51538334D01*
X58450952Y52252620D01*
X58450952Y51252620D01*
X57593809Y51300239D02*
X57689047Y51252620D01*
X57879523Y51252620D01*
X57974761Y51300239D01*
X58022380Y51395477D01*
X58022380Y51776429D01*
X57974761Y51871667D01*
X57879523Y51919286D01*
X57689047Y51919286D01*
X57593809Y51871667D01*
X57546190Y51776429D01*
X57546190Y51681191D01*
X58022380Y51585953D01*
X57212857Y51919286D02*
X56689047Y51919286D01*
X57212857Y51252620D01*
X56689047Y51252620D01*
X56403333Y51919286D02*
X55879523Y51919286D01*
X56403333Y51252620D01*
X55879523Y51252620D01*
X55070000Y51252620D02*
X55070000Y51776429D01*
X55117619Y51871667D01*
X55212857Y51919286D01*
X55403333Y51919286D01*
X55498571Y51871667D01*
X55070000Y51300239D02*
X55165238Y51252620D01*
X55403333Y51252620D01*
X55498571Y51300239D01*
X55546190Y51395477D01*
X55546190Y51490715D01*
X55498571Y51585953D01*
X55403333Y51633572D01*
X55165238Y51633572D01*
X55070000Y51681191D01*
X54593809Y51919286D02*
X54593809Y51252620D01*
X54593809Y51824048D02*
X54546190Y51871667D01*
X54450952Y51919286D01*
X54308095Y51919286D01*
X54212857Y51871667D01*
X54165238Y51776429D01*
X54165238Y51252620D01*
X53689047Y51252620D02*
X53689047Y51919286D01*
X53689047Y52252620D02*
X53736666Y52205000D01*
X53689047Y52157381D01*
X53641428Y52205000D01*
X53689047Y52252620D01*
X53689047Y52157381D01*
X53212857Y51919286D02*
X53212857Y51252620D01*
X53212857Y51824048D02*
X53165238Y51871667D01*
X53070000Y51919286D01*
X52927142Y51919286D01*
X52831904Y51871667D01*
X52784285Y51776429D01*
X52784285Y51252620D01*
X51927142Y51300239D02*
X52022380Y51252620D01*
X52212857Y51252620D01*
X52308095Y51300239D01*
X52355714Y51395477D01*
X52355714Y51776429D01*
X52308095Y51871667D01*
X52212857Y51919286D01*
X52022380Y51919286D01*
X51927142Y51871667D01*
X51879523Y51776429D01*
X51879523Y51681191D01*
X52355714Y51585953D01*
X50689047Y51252620D02*
X50689047Y52252620D01*
X50689047Y51871667D02*
X50593809Y51919286D01*
X50403333Y51919286D01*
X50308095Y51871667D01*
X50260476Y51824048D01*
X50212857Y51728810D01*
X50212857Y51443096D01*
X50260476Y51347858D01*
X50308095Y51300239D01*
X50403333Y51252620D01*
X50593809Y51252620D01*
X50689047Y51300239D01*
X49641428Y51252620D02*
X49736666Y51300239D01*
X49784285Y51347858D01*
X49831904Y51443096D01*
X49831904Y51728810D01*
X49784285Y51824048D01*
X49736666Y51871667D01*
X49641428Y51919286D01*
X49498571Y51919286D01*
X49403333Y51871667D01*
X49355714Y51824048D01*
X49308095Y51728810D01*
X49308095Y51443096D01*
X49355714Y51347858D01*
X49403333Y51300239D01*
X49498571Y51252620D01*
X49641428Y51252620D01*
X48450952Y51252620D02*
X48450952Y51776429D01*
X48498571Y51871667D01*
X48593809Y51919286D01*
X48784285Y51919286D01*
X48879523Y51871667D01*
X48450952Y51300239D02*
X48546190Y51252620D01*
X48784285Y51252620D01*
X48879523Y51300239D01*
X48927142Y51395477D01*
X48927142Y51490715D01*
X48879523Y51585953D01*
X48784285Y51633572D01*
X48546190Y51633572D01*
X48450952Y51681191D01*
X47974761Y51252620D02*
X47974761Y51919286D01*
X47974761Y51728810D02*
X47927142Y51824048D01*
X47879523Y51871667D01*
X47784285Y51919286D01*
X47689047Y51919286D01*
X46927142Y51252620D02*
X46927142Y52252620D01*
X46927142Y51300239D02*
X47022380Y51252620D01*
X47212857Y51252620D01*
X47308095Y51300239D01*
X47355714Y51347858D01*
X47403333Y51443096D01*
X47403333Y51728810D01*
X47355714Y51824048D01*
X47308095Y51871667D01*
X47212857Y51919286D01*
X47022380Y51919286D01*
X46927142Y51871667D01*
X45831904Y51919286D02*
X45450952Y51919286D01*
X45689047Y51252620D02*
X45689047Y52109762D01*
X45641428Y52205000D01*
X45546190Y52252620D01*
X45450952Y52252620D01*
X44974761Y51252620D02*
X45070000Y51300239D01*
X45117619Y51347858D01*
X45165238Y51443096D01*
X45165238Y51728810D01*
X45117619Y51824048D01*
X45070000Y51871667D01*
X44974761Y51919286D01*
X44831904Y51919286D01*
X44736666Y51871667D01*
X44689047Y51824048D01*
X44641428Y51728810D01*
X44641428Y51443096D01*
X44689047Y51347858D01*
X44736666Y51300239D01*
X44831904Y51252620D01*
X44974761Y51252620D01*
X44212857Y51252620D02*
X44212857Y51919286D01*
X44212857Y51728810D02*
X44165238Y51824048D01*
X44117619Y51871667D01*
X44022380Y51919286D01*
X43927142Y51919286D01*
X42831904Y51776429D02*
X42498571Y51776429D01*
X42355714Y51252620D02*
X42831904Y51252620D01*
X42831904Y52252620D01*
X42355714Y52252620D01*
X41927142Y51252620D02*
X41927142Y52252620D01*
X41593809Y51538334D01*
X41260476Y52252620D01*
X41260476Y51252620D01*
X40784285Y52252620D02*
X40784285Y51443096D01*
X40736666Y51347858D01*
X40689047Y51300239D01*
X40593809Y51252620D01*
X40403333Y51252620D01*
X40308095Y51300239D01*
X40260476Y51347858D01*
X40212857Y51443096D01*
X40212857Y52252620D01*
X39831904Y52252620D02*
X39165238Y52252620D01*
X39831904Y51252620D01*
X39165238Y51252620D01*
X38641428Y51824048D02*
X38736666Y51871667D01*
X38784285Y51919286D01*
X38831904Y52014524D01*
X38831904Y52062143D01*
X38784285Y52157381D01*
X38736666Y52205000D01*
X38641428Y52252620D01*
X38450952Y52252620D01*
X38355714Y52205000D01*
X38308095Y52157381D01*
X38260476Y52062143D01*
X38260476Y52014524D01*
X38308095Y51919286D01*
X38355714Y51871667D01*
X38450952Y51824048D01*
X38641428Y51824048D01*
X38736666Y51776429D01*
X38784285Y51728810D01*
X38831904Y51633572D01*
X38831904Y51443096D01*
X38784285Y51347858D01*
X38736666Y51300239D01*
X38641428Y51252620D01*
X38450952Y51252620D01*
X38355714Y51300239D01*
X38308095Y51347858D01*
X38260476Y51443096D01*
X38260476Y51633572D01*
X38308095Y51728810D01*
X38355714Y51776429D01*
X38450952Y51824048D01*
X37641428Y52252620D02*
X37546190Y52252620D01*
X37450952Y52205000D01*
X37403333Y52157381D01*
X37355714Y52062143D01*
X37308095Y51871667D01*
X37308095Y51633572D01*
X37355714Y51443096D01*
X37403333Y51347858D01*
X37450952Y51300239D01*
X37546190Y51252620D01*
X37641428Y51252620D01*
X37736666Y51300239D01*
X37784285Y51347858D01*
X37831904Y51443096D01*
X37879523Y51633572D01*
X37879523Y51871667D01*
X37831904Y52062143D01*
X37784285Y52157381D01*
X37736666Y52205000D01*
X37641428Y52252620D01*
X72070000Y49642620D02*
X72070000Y50642620D01*
X71641428Y49642620D02*
X71641428Y50166429D01*
X71689047Y50261667D01*
X71784285Y50309286D01*
X71927142Y50309286D01*
X72022380Y50261667D01*
X72070000Y50214048D01*
X71308095Y50309286D02*
X70927142Y50309286D01*
X71165238Y50642620D02*
X71165238Y49785477D01*
X71117619Y49690239D01*
X71022380Y49642620D01*
X70927142Y49642620D01*
X70736666Y50309286D02*
X70355714Y50309286D01*
X70593809Y50642620D02*
X70593809Y49785477D01*
X70546190Y49690239D01*
X70450952Y49642620D01*
X70355714Y49642620D01*
X70022380Y50309286D02*
X70022380Y49309286D01*
X70022380Y50261667D02*
X69927142Y50309286D01*
X69736666Y50309286D01*
X69641428Y50261667D01*
X69593809Y50214048D01*
X69546190Y50118810D01*
X69546190Y49833096D01*
X69593809Y49737858D01*
X69641428Y49690239D01*
X69736666Y49642620D01*
X69927142Y49642620D01*
X70022380Y49690239D01*
X69165238Y49690239D02*
X69070000Y49642620D01*
X68879523Y49642620D01*
X68784285Y49690239D01*
X68736666Y49785477D01*
X68736666Y49833096D01*
X68784285Y49928334D01*
X68879523Y49975953D01*
X69022380Y49975953D01*
X69117619Y50023572D01*
X69165238Y50118810D01*
X69165238Y50166429D01*
X69117619Y50261667D01*
X69022380Y50309286D01*
X68879523Y50309286D01*
X68784285Y50261667D01*
X68308095Y49737858D02*
X68260476Y49690239D01*
X68308095Y49642620D01*
X68355714Y49690239D01*
X68308095Y49737858D01*
X68308095Y49642620D01*
X68308095Y50261667D02*
X68260476Y50214048D01*
X68308095Y50166429D01*
X68355714Y50214048D01*
X68308095Y50261667D01*
X68308095Y50166429D01*
X67117619Y50690239D02*
X67974761Y49404524D01*
X66070000Y50690239D02*
X66927142Y49404524D01*
X65308095Y50309286D02*
X65308095Y49499762D01*
X65355714Y49404524D01*
X65403333Y49356905D01*
X65498571Y49309286D01*
X65641428Y49309286D01*
X65736666Y49356905D01*
X65308095Y49690239D02*
X65403333Y49642620D01*
X65593809Y49642620D01*
X65689047Y49690239D01*
X65736666Y49737858D01*
X65784285Y49833096D01*
X65784285Y50118810D01*
X65736666Y50214048D01*
X65689047Y50261667D01*
X65593809Y50309286D01*
X65403333Y50309286D01*
X65308095Y50261667D01*
X64831904Y49642620D02*
X64831904Y50309286D01*
X64831904Y50642620D02*
X64879523Y50595000D01*
X64831904Y50547381D01*
X64784285Y50595000D01*
X64831904Y50642620D01*
X64831904Y50547381D01*
X64498571Y50309286D02*
X64117619Y50309286D01*
X64355714Y50642620D02*
X64355714Y49785477D01*
X64308095Y49690239D01*
X64212857Y49642620D01*
X64117619Y49642620D01*
X63784285Y49642620D02*
X63784285Y50642620D01*
X63355714Y49642620D02*
X63355714Y50166429D01*
X63403333Y50261667D01*
X63498571Y50309286D01*
X63641428Y50309286D01*
X63736666Y50261667D01*
X63784285Y50214048D01*
X62450952Y50309286D02*
X62450952Y49642620D01*
X62879523Y50309286D02*
X62879523Y49785477D01*
X62831904Y49690239D01*
X62736666Y49642620D01*
X62593809Y49642620D01*
X62498571Y49690239D01*
X62450952Y49737858D01*
X61974761Y49642620D02*
X61974761Y50642620D01*
X61974761Y50261667D02*
X61879523Y50309286D01*
X61689047Y50309286D01*
X61593809Y50261667D01*
X61546190Y50214048D01*
X61498571Y50118810D01*
X61498571Y49833096D01*
X61546190Y49737858D01*
X61593809Y49690239D01*
X61689047Y49642620D01*
X61879523Y49642620D01*
X61974761Y49690239D01*
X61070000Y49737858D02*
X61022380Y49690239D01*
X61070000Y49642620D01*
X61117619Y49690239D01*
X61070000Y49737858D01*
X61070000Y49642620D01*
X60165238Y49690239D02*
X60260476Y49642620D01*
X60450952Y49642620D01*
X60546190Y49690239D01*
X60593809Y49737858D01*
X60641428Y49833096D01*
X60641428Y50118810D01*
X60593809Y50214048D01*
X60546190Y50261667D01*
X60450952Y50309286D01*
X60260476Y50309286D01*
X60165238Y50261667D01*
X59593809Y49642620D02*
X59689047Y49690239D01*
X59736666Y49737858D01*
X59784285Y49833096D01*
X59784285Y50118810D01*
X59736666Y50214048D01*
X59689047Y50261667D01*
X59593809Y50309286D01*
X59450952Y50309286D01*
X59355714Y50261667D01*
X59308095Y50214048D01*
X59260476Y50118810D01*
X59260476Y49833096D01*
X59308095Y49737858D01*
X59355714Y49690239D01*
X59450952Y49642620D01*
X59593809Y49642620D01*
X58831904Y49642620D02*
X58831904Y50309286D01*
X58831904Y50214048D02*
X58784285Y50261667D01*
X58689047Y50309286D01*
X58546190Y50309286D01*
X58450952Y50261667D01*
X58403333Y50166429D01*
X58403333Y49642620D01*
X58403333Y50166429D02*
X58355714Y50261667D01*
X58260476Y50309286D01*
X58117619Y50309286D01*
X58022380Y50261667D01*
X57974761Y50166429D01*
X57974761Y49642620D01*
X56784285Y50690239D02*
X57641428Y49404524D01*
X56498571Y49690239D02*
X56403333Y49642620D01*
X56212857Y49642620D01*
X56117619Y49690239D01*
X56070000Y49785477D01*
X56070000Y49833096D01*
X56117619Y49928334D01*
X56212857Y49975953D01*
X56355714Y49975953D01*
X56450952Y50023572D01*
X56498571Y50118810D01*
X56498571Y50166429D01*
X56450952Y50261667D01*
X56355714Y50309286D01*
X56212857Y50309286D01*
X56117619Y50261667D01*
X55212857Y49642620D02*
X55212857Y50166429D01*
X55260476Y50261667D01*
X55355714Y50309286D01*
X55546190Y50309286D01*
X55641428Y50261667D01*
X55212857Y49690239D02*
X55308095Y49642620D01*
X55546190Y49642620D01*
X55641428Y49690239D01*
X55689047Y49785477D01*
X55689047Y49880715D01*
X55641428Y49975953D01*
X55546190Y50023572D01*
X55308095Y50023572D01*
X55212857Y50071191D01*
X54879523Y50309286D02*
X54498571Y50309286D01*
X54736666Y50642620D02*
X54736666Y49785477D01*
X54689047Y49690239D01*
X54593809Y49642620D01*
X54498571Y49642620D01*
X54022380Y49642620D02*
X54117619Y49690239D01*
X54165238Y49737858D01*
X54212857Y49833096D01*
X54212857Y50118810D01*
X54165238Y50214048D01*
X54117619Y50261667D01*
X54022380Y50309286D01*
X53879523Y50309286D01*
X53784285Y50261667D01*
X53736666Y50214048D01*
X53689047Y50118810D01*
X53689047Y49833096D01*
X53736666Y49737858D01*
X53784285Y49690239D01*
X53879523Y49642620D01*
X54022380Y49642620D01*
X53308095Y49690239D02*
X53212857Y49642620D01*
X53022380Y49642620D01*
X52927142Y49690239D01*
X52879523Y49785477D01*
X52879523Y49833096D01*
X52927142Y49928334D01*
X53022380Y49975953D01*
X53165238Y49975953D01*
X53260476Y50023572D01*
X53308095Y50118810D01*
X53308095Y50166429D01*
X53260476Y50261667D01*
X53165238Y50309286D01*
X53022380Y50309286D01*
X52927142Y50261667D01*
X52450952Y49642620D02*
X52450952Y50642620D01*
X52022380Y49642620D02*
X52022380Y50166429D01*
X52070000Y50261667D01*
X52165238Y50309286D01*
X52308095Y50309286D01*
X52403333Y50261667D01*
X52450952Y50214048D01*
X51546190Y49642620D02*
X51546190Y50309286D01*
X51546190Y50642620D02*
X51593809Y50595000D01*
X51546190Y50547381D01*
X51498571Y50595000D01*
X51546190Y50642620D01*
X51546190Y50547381D01*
X50927142Y49642620D02*
X51022380Y49690239D01*
X51070000Y49737858D01*
X51117619Y49833096D01*
X51117619Y50118810D01*
X51070000Y50214048D01*
X51022380Y50261667D01*
X50927142Y50309286D01*
X50784285Y50309286D01*
X50689047Y50261667D01*
X50641428Y50214048D01*
X50593809Y50118810D01*
X50593809Y49833096D01*
X50641428Y49737858D01*
X50689047Y49690239D01*
X50784285Y49642620D01*
X50927142Y49642620D01*
X50165238Y49642620D02*
X50165238Y50642620D01*
X50070000Y50023572D02*
X49784285Y49642620D01*
X49784285Y50309286D02*
X50165238Y49928334D01*
X48927142Y50309286D02*
X48927142Y49642620D01*
X49355714Y50309286D02*
X49355714Y49785477D01*
X49308095Y49690239D01*
X49212857Y49642620D01*
X49070000Y49642620D01*
X48974761Y49690239D01*
X48927142Y49737858D01*
X48070000Y49690239D02*
X48165238Y49642620D01*
X48355714Y49642620D01*
X48450952Y49690239D01*
X48498571Y49785477D01*
X48498571Y50166429D01*
X48450952Y50261667D01*
X48355714Y50309286D01*
X48165238Y50309286D01*
X48070000Y50261667D01*
X48022380Y50166429D01*
X48022380Y50071191D01*
X48498571Y49975953D01*
X46879523Y50690239D02*
X47736666Y49404524D01*
X46546190Y50166429D02*
X46212857Y50166429D01*
X46070000Y49642620D02*
X46546190Y49642620D01*
X46546190Y50642620D01*
X46070000Y50642620D01*
X45641428Y49642620D02*
X45641428Y50642620D01*
X45308095Y49928334D01*
X44974761Y50642620D01*
X44974761Y49642620D01*
X44498571Y50642620D02*
X44498571Y49833096D01*
X44450952Y49737858D01*
X44403333Y49690239D01*
X44308095Y49642620D01*
X44117619Y49642620D01*
X44022380Y49690239D01*
X43974761Y49737858D01*
X43927142Y49833096D01*
X43927142Y50642620D01*
X43546190Y50642620D02*
X42879523Y50642620D01*
X43546190Y49642620D01*
X42879523Y49642620D01*
X42355714Y50214048D02*
X42450952Y50261667D01*
X42498571Y50309286D01*
X42546190Y50404524D01*
X42546190Y50452143D01*
X42498571Y50547381D01*
X42450952Y50595000D01*
X42355714Y50642620D01*
X42165238Y50642620D01*
X42070000Y50595000D01*
X42022380Y50547381D01*
X41974761Y50452143D01*
X41974761Y50404524D01*
X42022380Y50309286D01*
X42070000Y50261667D01*
X42165238Y50214048D01*
X42355714Y50214048D01*
X42450952Y50166429D01*
X42498571Y50118810D01*
X42546190Y50023572D01*
X42546190Y49833096D01*
X42498571Y49737858D01*
X42450952Y49690239D01*
X42355714Y49642620D01*
X42165238Y49642620D01*
X42070000Y49690239D01*
X42022380Y49737858D01*
X41974761Y49833096D01*
X41974761Y50023572D01*
X42022380Y50118810D01*
X42070000Y50166429D01*
X42165238Y50214048D01*
X41355714Y50642620D02*
X41260476Y50642620D01*
X41165238Y50595000D01*
X41117619Y50547381D01*
X41070000Y50452143D01*
X41022380Y50261667D01*
X41022380Y50023572D01*
X41070000Y49833096D01*
X41117619Y49737858D01*
X41165238Y49690239D01*
X41260476Y49642620D01*
X41355714Y49642620D01*
X41450952Y49690239D01*
X41498571Y49737858D01*
X41546190Y49833096D01*
X41593809Y50023572D01*
X41593809Y50261667D01*
X41546190Y50452143D01*
X41498571Y50547381D01*
X41450952Y50595000D01*
X41355714Y50642620D01*
X40593809Y50023572D02*
X39831904Y50023572D01*
X38927142Y50642620D02*
X39117619Y50642620D01*
X39212857Y50595000D01*
X39260476Y50547381D01*
X39355714Y50404524D01*
X39403333Y50214048D01*
X39403333Y49833096D01*
X39355714Y49737858D01*
X39308095Y49690239D01*
X39212857Y49642620D01*
X39022380Y49642620D01*
X38927142Y49690239D01*
X38879523Y49737858D01*
X38831904Y49833096D01*
X38831904Y50071191D01*
X38879523Y50166429D01*
X38927142Y50214048D01*
X39022380Y50261667D01*
X39212857Y50261667D01*
X39308095Y50214048D01*
X39355714Y50166429D01*
X39403333Y50071191D01*
X38260476Y50214048D02*
X38355714Y50261667D01*
X38403333Y50309286D01*
X38450952Y50404524D01*
X38450952Y50452143D01*
X38403333Y50547381D01*
X38355714Y50595000D01*
X38260476Y50642620D01*
X38070000Y50642620D01*
X37974761Y50595000D01*
X37927142Y50547381D01*
X37879523Y50452143D01*
X37879523Y50404524D01*
X37927142Y50309286D01*
X37974761Y50261667D01*
X38070000Y50214048D01*
X38260476Y50214048D01*
X38355714Y50166429D01*
X38403333Y50118810D01*
X38450952Y50023572D01*
X38450952Y49833096D01*
X38403333Y49737858D01*
X38355714Y49690239D01*
X38260476Y49642620D01*
X38070000Y49642620D01*
X37974761Y49690239D01*
X37927142Y49737858D01*
X37879523Y49833096D01*
X37879523Y50023572D01*
X37927142Y50118810D01*
X37974761Y50166429D01*
X38070000Y50214048D01*
X37260476Y50642620D02*
X37165238Y50642620D01*
X37070000Y50595000D01*
X37022380Y50547381D01*
X36974761Y50452143D01*
X36927142Y50261667D01*
X36927142Y50023572D01*
X36974761Y49833096D01*
X37022380Y49737858D01*
X37070000Y49690239D01*
X37165238Y49642620D01*
X37260476Y49642620D01*
X37355714Y49690239D01*
X37403333Y49737858D01*
X37450952Y49833096D01*
X37498571Y50023572D01*
X37498571Y50261667D01*
X37450952Y50452143D01*
X37403333Y50547381D01*
X37355714Y50595000D01*
X37260476Y50642620D01*
X36593809Y50642620D02*
X35974761Y50642620D01*
X36308095Y50261667D01*
X36165238Y50261667D01*
X36070000Y50214048D01*
X36022380Y50166429D01*
X35974761Y50071191D01*
X35974761Y49833096D01*
X36022380Y49737858D01*
X36070000Y49690239D01*
X36165238Y49642620D01*
X36450952Y49642620D01*
X36546190Y49690239D01*
X36593809Y49737858D01*
X35355714Y50642620D02*
X35260476Y50642620D01*
X35165238Y50595000D01*
X35117619Y50547381D01*
X35070000Y50452143D01*
X35022380Y50261667D01*
X35022380Y50023572D01*
X35070000Y49833096D01*
X35117619Y49737858D01*
X35165238Y49690239D01*
X35260476Y49642620D01*
X35355714Y49642620D01*
X35450952Y49690239D01*
X35498571Y49737858D01*
X35546190Y49833096D01*
X35593809Y50023572D01*
X35593809Y50261667D01*
X35546190Y50452143D01*
X35498571Y50547381D01*
X35450952Y50595000D01*
X35355714Y50642620D01*
X34022380Y49642620D02*
X34355714Y50118810D01*
X34593809Y49642620D02*
X34593809Y50642620D01*
X34212857Y50642620D01*
X34117619Y50595000D01*
X34070000Y50547381D01*
X34022380Y50452143D01*
X34022380Y50309286D01*
X34070000Y50214048D01*
X34117619Y50166429D01*
X34212857Y50118810D01*
X34593809Y50118810D01*
X33641428Y49928334D02*
X33165238Y49928334D01*
X33736666Y49642620D02*
X33403333Y50642620D01*
X33070000Y49642620D01*
X32736666Y49642620D02*
X32736666Y50642620D01*
X32403333Y49928334D01*
X32070000Y50642620D01*
X32070000Y49642620D01*
D11*
X24463333Y54582620D02*
X24463333Y53868334D01*
X24510952Y53725477D01*
X24606190Y53630239D01*
X24749047Y53582620D01*
X24844285Y53582620D01*
X24034761Y54487381D02*
X23987142Y54535000D01*
X23891904Y54582620D01*
X23653809Y54582620D01*
X23558571Y54535000D01*
X23510952Y54487381D01*
X23463333Y54392143D01*
X23463333Y54296905D01*
X23510952Y54154048D01*
X24082380Y53582620D01*
X23463333Y53582620D01*
X4143333Y54582620D02*
X4143333Y53868334D01*
X4190952Y53725477D01*
X4286190Y53630239D01*
X4429047Y53582620D01*
X4524285Y53582620D01*
X3143333Y53582620D02*
X3714761Y53582620D01*
X3429047Y53582620D02*
X3429047Y54582620D01*
X3524285Y54439762D01*
X3619523Y54344524D01*
X3714761Y54296905D01*
D12*
X22800000Y50435000D02*
X22800000Y2115000D01*
X25460000Y50435000D02*
X25460000Y2115000D01*
X25460000Y2115000D02*
X22800000Y2115000D01*
X25460000Y50435000D02*
X22800000Y50435000D01*
X25460000Y53035000D02*
X24130000Y53035000D01*
X25460000Y51705000D02*
X25460000Y53035000D01*
X5140000Y2115000D02*
X2480000Y2115000D01*
X5140000Y53035000D02*
X3810000Y53035000D01*
X5140000Y50435000D02*
X2480000Y50435000D01*
X2480000Y50435000D02*
X2480000Y2115000D01*
X5140000Y51705000D02*
X5140000Y53035000D01*
X5140000Y50435000D02*
X5140000Y2115000D01*
M02*
